<?xml version="1.0" encoding="utf-8"?>
<!-- Generator: Adobe Illustrator 23.0.2, SVG Export Plug-In . SVG Version: 6.00 Build 0)  -->
<svg version="1.1" id="Слой_1" xmlns="http://www.w3.org/2000/svg" xmlns:xlink="http://www.w3.org/1999/xlink" x="0px" y="0px"
	 viewBox="0 0 184 36" style="enable-background:new 0 0 184 36;" xml:space="preserve">
<style type="text/css">
	.st0{fill-rule:evenodd;clip-rule:evenodd;fill:#FFFFFF;}
</style>
<path class="st0" d="M9.4,4.8H8c-2.1,0-4.2,1.5-4.2,5.9c0,4.2,1.9,5.6,4.2,5.6h1.4V4.8z M7.2,18.6L3.1,28.7H0l4.6-10.8
	C2.4,16.7,1,14.6,1,10.7c0-5.5,3.3-8.3,7.1-8.3h3.9v26.3H9.4V18.6H7.2z M59.7,19.4c0-5.9,2-9.7,5.8-9.7c1.5,0,2.3,0.5,3,1l-0.4,2.8
	c-0.7-0.7-1.7-1.3-2.7-1.3c-1.8,0-3.1,2.4-3.1,7.1c0,4.7,1,7.4,3,7.4c1.2,0,2.2-0.6,2.8-1.2l0.6,2.2c-0.9,0.9-1.9,1.4-3.4,1.4
	C61.8,29.1,59.7,25.8,59.7,19.4z M52.3,19.4v9.4h-2.5V9.9h2.5v8.7l3.9-8.7h2.6l-4.1,8.9l4.6,10h-2.8L52.3,19.4L52.3,19.4z
	 M40.4,17.6h4.2c0-3.2-0.5-5.6-1.9-5.6C41.1,12.1,40.6,14.3,40.4,17.6L40.4,17.6z M43.2,29.1c-3.4,0-5.5-3.1-5.5-8.9
	c0-6.1,1.5-10.5,4.9-10.5c2.7,0,4.5,2.4,4.5,8.8V20h-6.8c0,4.3,1,6.5,3.1,6.5c1.4,0,2.6-0.8,3.2-1.3l0.6,2.3
	C46.2,28.5,44.8,29.1,43.2,29.1L43.2,29.1z M32.4,12.3h-2.8v0.3c0,4-0.2,9.8-1.5,13.8h4.4L32.4,12.3L32.4,12.3z M36.2,32.5h-2.3
	v-3.7h-7v3.7h-2.3v-6.1h1c1.5-4,1.7-9.9,1.7-14.9V9.9h7.6v16.5h1.3L36.2,32.5L36.2,32.5z M23.2,9.9v18.9h-2.5v-8.5h-3.8v8.5h-2.5
	V9.9h2.5v8h3.8v-8H23.2z M86.9,2h-7.1v26.9h-1.7V0.3h10.4v28.6h-1.7V2L86.9,2z M96.9,27.8c1.1,0,1.9-0.8,2.6-2.3
	c0.6-1.5,1-3.9,1-7.1c0-2.7-0.3-4.7-0.8-6.2c-0.6-1.5-1.3-2.2-2.3-2.2c-0.4,0-0.7,0.1-1.1,0.3c-0.4,0.2-0.7,0.5-1,0.9
	c-0.3,0.4-0.6,0.8-0.8,1.3c-0.2,0.5-0.5,1-0.6,1.5v11.3c0.3,0.8,0.7,1.4,1.2,1.8C95.6,27.6,96.2,27.8,96.9,27.8L96.9,27.8z
	 M96.9,29.3c-0.6,0-1.2-0.2-1.7-0.5c-0.5-0.3-0.9-0.7-1.2-1.3v7.6h-1.6V8.8h1.4l0.1,3.3c0.4-1,0.9-1.8,1.5-2.6
	c0.6-0.8,1.4-1.1,2.3-1.1c0.7,0,1.3,0.2,1.9,0.7c0.6,0.5,1,1.2,1.4,2c0.4,0.9,0.7,1.9,0.9,3.1c0.2,1.2,0.3,2.5,0.3,4
	c0,3.7-0.5,6.5-1.4,8.3C99.6,28.3,98.4,29.3,96.9,29.3L96.9,29.3z M108.3,27.8c0.8,0,1.4-0.4,2-1.2c0.5-0.8,1-1.7,1.3-2.8v-5.6h-1.8
	c-1.4,0-2.4,0.4-3.1,1.2c-0.7,0.8-1,2.1-1,3.8c0,1.4,0.2,2.5,0.7,3.3C106.9,27.4,107.5,27.8,108.3,27.8L108.3,27.8z M112,28.9
	c-0.1-0.3-0.2-0.7-0.2-1c-0.1-0.6-0.2-1.1-0.2-1.7c-0.4,1-0.9,1.7-1.5,2.3c-0.6,0.6-1.3,0.8-2.2,0.8c-1.1,0-2-0.5-2.8-1.5
	c-0.7-1-1.1-2.5-1.1-4.3c0-2.2,0.5-3.8,1.4-4.9c1-1.1,2.3-1.7,4.1-1.7h1.8v-2.5c0-1.5-0.2-2.7-0.7-3.4c-0.5-0.7-1.2-1-2.1-1
	c-0.7,0-1.4,0.2-2,0.6c-0.6,0.4-1.1,0.9-1.5,1.6l-0.4-1.8c0.3-0.5,0.8-1,1.5-1.4c0.7-0.4,1.5-0.6,2.4-0.6c1.4,0,2.5,0.5,3.2,1.4
	c0.7,0.9,1.1,2.4,1.1,4.4v11c0,0.7,0,1.4,0.1,2.1c0.1,0.7,0.2,1.2,0.3,1.6H112z M118.2,28.9h-1.6V8.8h1.6v9.5l5.6-9.5h1.5l-5.5,9.3
	l5.9,10.8H124l-5.8-10.4V28.9z M131.7,10.3v18.6h-1.6V10.3h-3.9V8.8h9.3v1.6H131.7L131.7,10.3z M145.7,14.9c0-0.5,0-1,0-1.5
	c0-0.4,0.1-0.9,0.1-1.3h-0.1c-0.1,0.4-0.2,0.9-0.4,1.3c-0.2,0.4-0.3,0.9-0.5,1.3l-5.4,14.2h-1.3V8.8h1.5v14c0,0.9,0,1.9-0.1,2.8h0.1
	c0.1-0.5,0.2-0.9,0.4-1.3c0.2-0.4,0.3-0.9,0.5-1.3l5.4-14.1h1.4v20.1h-1.5V14.9z M152.5,28.9H151V8.8h1.6v9.5l5.6-9.5h1.5l-5.5,9.3
	l5.9,10.8h-1.7l-5.8-10.4V28.9z M162.3,35.3c-0.2,0-0.3,0-0.5,0c-0.1,0-0.3,0-0.4-0.1l-0.2-1.8c0.1,0.1,0.3,0.1,0.4,0.1
	c0.2,0,0.4,0,0.6,0c0.6,0,1.1-0.3,1.5-0.9c0.4-0.6,0.7-1.5,1-2.6l0.1-0.6l-4.1-20.7h1.6l2.7,13.1c0.2,0.8,0.3,1.5,0.4,2.3
	c0.1,0.7,0.2,1.5,0.3,2.3h0.1c0.1-0.8,0.2-1.6,0.4-2.3c0.1-0.7,0.3-1.5,0.4-2.2l2.6-13.1h1.4l-4.3,21.2c-0.1,0.7-0.3,1.4-0.5,2
	c-0.2,0.6-0.5,1.2-0.8,1.7c-0.3,0.5-0.7,0.9-1.1,1.2C163.4,35.1,162.9,35.3,162.3,35.3L162.3,35.3z M174.9,14.7
	c-0.1-0.5-0.2-1-0.3-1.5c-0.1-0.5-0.2-1-0.3-1.5h-0.1c0,0.5,0.1,1.1,0.1,1.6c0,0.5,0.1,1.2,0.1,1.9v13.7H173V8.8h1.8l2.9,12.3
	c0.2,0.7,0.3,1.3,0.4,1.8c0.1,0.5,0.1,1,0.2,1.6h0.1c0-0.5,0.1-1.1,0.2-1.6c0.1-0.5,0.2-1.1,0.4-1.8l3-12.3h1.8v20.1h-1.5V15.2
	c0-1.2,0-2.4,0.1-3.6h-0.1c-0.1,0.6-0.2,1.1-0.2,1.6c-0.1,0.5-0.2,1-0.3,1.4L179,26.5h-1.3L174.9,14.7L174.9,14.7z"/>
</svg>
